<?xml version="1.0" standalone="no"?><!DOCTYPE svg PUBLIC "-//W3C//DTD SVG 1.1//EN" "http://www.w3.org/Graphics/SVG/1.1/DTD/svg11.dtd"><svg t="1654336743245" class="icon" viewBox="0 0 1024 1024" version="1.1" xmlns="http://www.w3.org/2000/svg" p-id="6154" xmlns:xlink="http://www.w3.org/1999/xlink" width="30" height="30"><defs><style type="text/css">@font-face { font-family: feedback-iconfont; src: url("//at.alicdn.com/t/font_1031158_u69w8yhxdu.woff2?t=1630033759944") format("woff2"), url("//at.alicdn.com/t/font_1031158_u69w8yhxdu.woff?t=1630033759944") format("woff"), url("//at.alicdn.com/t/font_1031158_u69w8yhxdu.ttf?t=1630033759944") format("truetype"); }
</style></defs><path d="M109.6 901.2c-12.5 0-24.3-4.9-33.2-13.8-8.9-8.9-13.8-20.7-13.8-33.2l-0.3-684.5c0-12.5 4.9-24.3 13.8-33.2 8.9-8.9 20.7-13.8 33.2-13.8l805.3-0.4c12.5 0 24.3 4.9 33.2 13.8 8.9 8.9 13.8 20.7 13.8 33.2l0.3 684.5c0 12.5-4.9 24.3-13.8 33.2-8.9 8.9-20.7 13.8-33.2 13.8l-805.3 0.4z m805-738.5l-805.3 0.3c-2.4 0-4 1.2-4.7 2-0.7 0.7-2 2.3-2 4.7l0.3 684.5c0 2.4 1.2 4 2 4.7 0.7 0.7 2.3 2 4.7 2l805.3-0.4c2.4 0 4-1.2 4.7-2 0.7-0.7 2-2.3 2-4.7l-0.3-684.5c0-2.4-1.2-4-2-4.7-0.7-0.7-2.3-1.9-4.7-1.9z" fill="#4F4F4F" p-id="6155"></path><path d="M645.1 491.7c-69.7 0-126.5-56.7-126.6-126.5 0-33.8 13.1-65.6 37-89.5 23.9-23.9 55.7-37.1 89.5-37.1h0.1c69.7 0 126.5 56.7 126.6 126.5 0 27.6-8.7 53.9-25.3 76-24.1 32.2-61 50.7-101.2 50.7 0-0.1-0.1-0.1-0.1-0.1z m0-212.9c-23.1 0-44.8 9-61.1 25.3s-25.2 38-25.2 61.1c0 47.6 38.8 86.2 86.3 86.2h0.1c27.4 0 52.6-12.6 69-34.6 11.3-15 17.2-32.9 17.2-51.8 0-47.5-38.7-86.2-86.3-86.2z" fill="#4F4F4F" p-id="6156"></path><path d="M471 785c-25.9 0-47-21-47-46.9l-0.2-213.2c-0.1-58.6 51.5-107.2 120-113l1.7-0.1h16.7c11.1 0 20.1 9 20.1 20.1 0 11.1-9 20.1-20.1 20.2h-15.8c-46.3 4.3-82.4 36.1-82.4 72.8l0.2 213.2c0 3.7 3 6.7 6.7 6.7l348.7-0.2c3.7 0 6.7-3 6.7-6.7V524.7c0-36.7-36.1-68.5-82.4-72.8h-15.8c-11.1 0-20.1-9-20.1-20.1 0-11.1 9-20.1 20.1-20.1l18.3 0.1c68.5 5.8 120.1 54.3 120.1 112.9v213.2c0 25.9-21.1 47-47 47L471 785z" fill="#4F4F4F" p-id="6157"></path><path d="M177.6 446.5c-11.1 0-20.1-9-20.1-20.1 0-11.1 9-20.1 20.1-20.1l201.3-0.1c11.1 0 20.1 9 20.1 20.1 0 11.1-9 20.1-20.1 20.1l-201.3 0.1c0.1 0 0 0 0 0zM177.7 617.6c-11.1 0-20.1-9-20.1-20.1 0-11.1 9-20.1 20.1-20.1l147.6-0.1c11.1 0 20.1 9 20.1 20.1 0 11.1-9 20.1-20.1 20.1l-147.6 0.1z" fill="#4F4F4F" p-id="6158"></path></svg>
